# xmcd
#
# Track frame offsets:
# 150
# 16294
# 32613
# 48168
# 63511
# 80143
# 93372
# 109965
# 126258
# 142238
# 157226
# 172228
# 186766
#
# Disc length: 2730 seconds
#
#
# Revision: 2
# Processed by: cddbd v1.5.2PL0 Copyright (c) Steve Scherf et al.
# Submitted via: FreeRIP 2.945 
#
DISCID=bd0aa80d
DTITLE=Hepsi - 2
DYEAR=2006
DGENRE=Pop
TTITLE0=Olmaz Böyle Sey
TTITLE1=Mum
TTITLE2=Kalpsizsin
TTITLE3=Tik Tak
TTITLE4=Hanimis
TTITLE5=Kolay Mi Sevmek
TTITLE6=Iki Kelime
TTITLE7=Bakalim
TTITLE8=Ask Sakizi
TTITLE9=Kafani Takma
TTITLE10=Saklanbac
TTITLE11=Dinlemem
TTITLE12=Uzat Elini
EXTD=
EXTT0=YEAR: 2006
EXTT1=
EXTT2=
EXTT3=
EXTT4=
EXTT5=
EXTT6=
EXTT7=
EXTT8=
EXTT9=
EXTT10=
EXTT11=
EXTT12=
PLAYORDER=
